<svg version="1.1" xmlns="http://www.w3.org/2000/svg" xmlns:xlink="http://www.w3.org/1999/xlink" width="969.96997" height="869.25504" viewBox="0,0,969.96997,869.25504"><g transform="translate(0,128.99399)"><g data-paper-data="{&quot;isPaintingLayer&quot;:true}" fill="#000000" fill-rule="nonzero" stroke-linecap="butt" stroke-linejoin="miter" stroke-miterlimit="10" stroke-dasharray="" stroke-dashoffset="0" style="mix-blend-mode: normal"><path d="M588.7945,62.99803c-0.02605,-0.38382 -0.04468,-0.77379 -0.05448,-1.16784c-4.1856,1.51243 -8.36986,3.03337 -12.55399,4.55778l10.75859,-1.98185c0.50248,-0.10237 1.02265,-0.15612 1.55537,-0.15612c0.10051,0 0.20058,0.00191 0.30016,0.00571c0.01638,-0.42076 0.02263,-0.84083 -0.00566,-1.25768zM639.73089,32.59614c12.93576,-4.28303 26.86636,-9.03937 40.07045,-12.39081c8.9905,-2.28196 18.03992,-4.33514 26.99592,-6.74898c3.90272,-1.05187 7.79862,-3.01323 11.82664,-2.67756c2.30088,0.19174 4.74057,0.8208 6.54866,2.25663c11.1554,8.8587 7.84727,20.82139 -3.00884,27.12385c-1.84725,1.07241 -4.00705,1.48456 -6.03942,2.14174c-14.71088,4.75682 -53.14689,11.65083 -65.00376,18.61748c-3.66983,2.15625 8.20312,2.44714 12.43521,2.90155c10.59172,1.13726 21.3636,-0.30589 31.94427,0.92997c4.61103,0.53859 10.27235,1.89263 12.86719,6.43359c1.51037,2.64314 1.72315,5.84449 2.38281,8.81641c0.06473,0.29163 -0.52864,0.81691 -0.23383,0.86515c2.01571,0.32984 11.24943,0.33305 15.17385,1.66903c1.41479,0.48163 4.81684,2.39196 5.94921,3.54744c0.72545,0.74026 0.70156,3.11043 2.30148,3.08447c6.9147,-0.11221 54.01194,-11.25766 62.18058,8.40149c0.52726,1.26894 -0.04379,2.75293 0.07826,4.12162c0.12205,1.36869 0.94667,2.72822 0.65225,4.07043c-2.69078,12.2669 -20.16352,16.30881 -29.09375,20.14717c-2.43368,1.04604 -5.95912,1.54703 -8.34742,2.1277c-1.01649,0.24714 1.37794,0.43594 2.95655,3.14909c0.87096,1.49691 1.4066,3.17994 1.85845,4.85181c1.23447,4.56754 -0.19642,10.06505 -1.96354,14.30614c-3.29744,7.91385 -14.73646,7.46901 -20.42254,11.58014c-0.6296,0.45521 1.9161,2.94317 3.12786,5.25585c1.04099,1.98676 0.61816,7.1163 0.52746,9.11749c-0.12209,2.69351 -3.76787,4.54616 -4.50587,6.87409c-0.33452,1.05522 2.24932,2.68542 2.30566,4.13223c0.04608,1.18327 -0.0705,2.3677 -0.06744,3.55186c0.00182,0.70299 -0.61931,2.05973 0.08206,2.10739c2.13762,0.14524 4.12618,-1.15811 6.20412,-1.68028c6.66493,-1.67485 14.58562,-3.9643 20.99986,-0.64179c1.31784,0.68263 3.13169,0.90824 3.875,2.19283c2.69536,4.65809 3.98357,6.70078 3.83187,11.68356c-0.057,1.87223 0.68049,4.05862 -0.37379,5.60684c-0.8175,1.2005 -2.78467,4.65495 -4.2525,5.4675c-1.07708,0.59624 -2.24018,1.02344 -3.33776,1.58104c-0.85507,0.4344 -3.46839,1.51698 -2.51729,1.3935c3.42485,-0.44463 22.25975,-5.34156 31.91787,-4.66051c3.83892,0.2707 8.90126,1.20637 12.54948,2.53544c0.30822,0.11228 0.31934,0.75923 0.6469,0.7416c9.26165,-0.49866 15.43973,-3.4448 23.22289,3.36547c1.76756,1.54662 2.84667,6.36223 3.53773,8.4197c1.67843,4.99714 -2.14784,12.14731 -6.46623,14.5162c-2.89368,1.58736 -6.1568,4.62367 -9.48198,5.86686c-9.21051,3.44357 -36.10087,2.40496 -33.55572,18.40147c0.06479,0.40724 5.61818,0.92978 5.94734,1.04855c6.77576,2.44488 14.76703,5.74626 21.47511,8.37116c2.92292,1.14375 6.29777,2.49576 7.93098,5.18257c1.19928,1.97295 2.44456,3.95587 3.23199,6.12631c0.24443,0.67374 -0.95016,2.164 -0.23395,2.13736c4.63547,-0.17245 9.0928,-1.84813 13.66391,-2.63698c10.89928,-1.88092 23.77672,-3.30321 34.06234,-1.33225c7.62378,1.46089 11.69183,4.36219 13.57915,11.66755c0.10006,0.38732 1.44861,4.63133 1.20699,5.65074c-3.99743,16.86548 -37.68279,26.66428 -45.50733,30.6009c-6.95039,3.49682 -14.91766,4.43191 -22.3276,6.80433c-2.0746,0.66422 -2.69793,3.45759 -4.35185,4.87523c-4.6778,4.00955 -10.92065,5.7116 -16.46682,8.39456c-7.29193,3.52748 -15.23734,5.50589 -22.80337,8.39909c-1.14293,0.43705 -0.38254,1.0221 -1.20105,1.78882c-1.68505,1.57843 -3.5067,3.01149 -5.36947,4.37563c-2.48393,1.81904 -5.60767,2.59937 -8.17503,4.29863c-12.96366,8.58026 31.04876,-1.65795 46.55928,-2.70727c6.17052,-0.41745 14.06974,0.59671 19.8417,3.10625c8.99008,3.90873 11.58748,18.06493 4.57063,24.91063c-1.01893,0.99408 -2.33358,1.63588 -3.55867,2.36083c-8.74649,5.17568 -16.92403,11.63035 -26.45691,15.15356c-24.62902,9.10252 -49.31279,18.05651 -74,27c-27.97787,10.1356 -57.58768,15.0213 -86.40598,22.43733c-22.04753,5.67365 -46.08541,7.62806 -68.2972,12.41634c-14.84321,3.19981 -29.74452,6.14606 -44.51669,9.65928c-8.81924,2.09745 -17.08017,7.28148 -26.14292,7.49348c-2.10563,0.04925 -4.24331,-0.89687 -6.30231,-0.45348c-24.50715,5.27754 -49.47433,8.19322 -74.04791,13.15225c-0.56264,0.11354 -0.13805,2.39905 -0.26411,2.96861c-1.09033,4.92631 -1.40639,9.9945 -6.43359,12.86719c-7.69399,4.39657 -17.75544,2.73601 -22.16016,-5.24219c-0.89778,-1.62614 0.12867,-4.28394 -1.35154,-5.40614c-1.26995,-0.9628 -3.14174,0.5371 -4.71201,0.80913c-24.56113,4.25492 -51.13825,10.14171 -75.90874,12.93031c-6.48425,0.72998 -22.39997,3.35012 -30.30897,-0.61455c-10.05693,-5.0414 -9.77181,-21.4419 0,-26.6875c5.21476,-2.79933 19.99444,-5.39351 20.94552,-5.75468c0.64189,-0.24376 -0.17243,-1.36742 -0.35797,-2.02849c-0.25125,-0.89521 -1.814,0.41268 -2.70934,0.66346c-1.31704,0.36888 -2.81451,0.78457 -4.25321,0.83215c-3.99659,0.13218 -10.6847,-3.02587 -13.67278,-5.27019c-5.78055,-4.3417 -6.84959,-5.88716 -8.87323,-12.82762c-0.74715,-2.56251 -0.16277,-7.6163 -1.79582,-10.46832c-0.12729,-0.22231 -0.60277,0.19568 -0.62218,0.45112c-0.54967,7.23265 -0.00666,14.53481 -0.78599,21.74633c-1.08438,10.03433 -8.05043,16.50268 -18.30392,14.42462c-1.45859,-0.29561 -4.3942,-0.2884 -5.76248,-1.55743c-1.76386,-1.63591 -3.03494,-4.28531 -4.66054,-5.77499c-2.72218,-2.49456 -7.01791,-3.70297 -9.04186,-7.17729c-4.49013,-7.70776 -3.93519,-19.92311 -4.63941,-27.50743c-1.05486,-11.3606 -2.05293,-23.72864 -3.03526,-35.09574c-1.31772,-15.24813 -2.39182,-30.51969 -3.97759,-45.74228c-1.73064,-16.61324 -4.05323,-33.15972 -5.9703,-49.75249c-1.17899,-10.2045 -0.21548,-20.54514 -0.10863,-30.81696c0.04845,-4.65771 2.41832,-10.20359 6.43359,-12.86719c0.52108,-0.34567 3.61982,-0.6621 4.20111,-1.61222c0.36347,-0.59409 0.49735,-1.32873 0.94137,-1.86531c0.51219,-0.61896 4.56768,-2.81824 4.57944,-2.84885c0.22963,-0.59768 0.3789,-1.21486 0.47987,-1.84399c-5.87087,1.42651 -10.81915,2.6269 -10.97269,2.6577c-8.09266,1.62327 -16.37112,2.11912 -24.55744,3.1728c-10.24879,1.31915 -20.49757,2.6383 -30.74636,3.95745c-15.58508,2.006 -31.37013,4.83368 -47.0387,5.99927c-6.75253,0.50232 -13.46662,-1.43077 -20.19696,-2.17337c-4.73455,-0.52239 -33.56519,-3.24181 -35.58144,-5.76487c-5.03443,-6.29988 -4.46385,-16.30816 -2.31799,-24.08179c0.53822,-1.94977 22.89478,-18.23169 24.11738,-19.14346c1.11012,-0.82789 2.21866,-1.65951 3.32612,-2.4939c-0.73988,-1.18762 -1.1673,-2.59004 -1.1673,-4.0923c0,-2.8724 1.56266,-5.37982 3.88422,-6.71851l2.98369,-1.79035c8.86058,-5.31676 17.71694,-10.64054 26.58174,-15.95027c4.61061,-2.76161 9.0223,-5.88852 13.83815,-8.27426c4.81586,-2.38574 9.97647,-4.00087 14.96699,-5.99559c11.69264,-4.67358 23.39134,-9.33209 35.0887,-13.99389c-5.47536,1.29067 -10.97089,2.52648 -16.49579,3.69371c-5.05508,1.06798 -10.11017,2.13595 -15.16525,3.20393c-5.05508,1.06798 -9.99971,3.09625 -15.16525,3.20393l-15.00494,3.17006c-0.56613,0.13164 -1.15608,0.20124 -1.76228,0.20124c-4.28021,0 -7.75,-3.46979 -7.75,-7.75c0,-3.50993 2.3333,-6.47488 5.5334,-7.42837c4.9158,-1.5904 18.67303,-6.04127 23.58883,-7.63168c10.3482,-3.34795 20.67615,-6.94929 31.06284,-10.28255l8.75771,-6.06303c-6.03944,-0.82193 -12.02942,-1.93777 -17.92941,-3.44108c-5.82007,-1.48295 -12.46983,-1.20704 -17.41807,-4.61104c-1.57081,-1.08059 -2.68049,-2.59448 -3.59935,-4.28766c-11.78305,2.87302 -23.56639,5.74485 -35.3521,8.60687c-2.9615,0.71916 -18.08334,5.19115 -23.78073,4.51666l-15.34839,1.33464c-0.25157,0.02464 -0.50667,0.03725 -0.76472,0.03725c-4.28021,0 -7.75,-3.46979 -7.75,-7.75c0,-3.25915 2.01179,-6.04842 4.86129,-7.19373l13.58908,-5.82389c4.90253,-2.09536 9.69678,-4.46478 14.7076,-6.28607c3.94649,-1.43443 8.074,-2.31088 12.11219,-3.46214c14.90606,-4.24958 29.81693,-8.4824 44.72538,-12.7236c17.61741,-5.01185 35.18516,-10.4536 52.88991,-15.19747c2.53722,-0.98201 5.07455,-1.96376 7.61203,-2.9451c2.0205,-0.7814 4.043,-1.53298 6.06807,-2.25896l-0.53126,-6.37515c-0.02269,-0.24158 -0.03429,-0.48638 -0.03429,-0.73389c0,-2.93113 1.62721,-5.4822 4.02757,-6.79916c-0.75196,-4.88216 -1.90114,-9.733 -2.00913,-14.66649c-0.1322,-6.03972 0.96295,-12.0439 1.44443,-18.06585c3.99199,-1.2457 8.19573,-5.52528 11.97596,-3.7371c5.36188,2.53636 7.81869,9.07607 10.4979,14.36802c1.86608,3.68587 1.94288,8.0311 2.87948,12.05487c0.41516,1.78359 0.88488,3.55781 1.3513,5.33276c0.0308,-0.12513 0.06534,-0.24955 0.10401,-0.37321l0.73516,-15.43833c0.1701,-4.12971 3.57183,-7.4255 7.74333,-7.4255c4.28021,0 7.75,3.46979 7.75,7.75v2.73512c0.52935,5.73634 1.10646,11.46586 1.7101,17.19171c13.90696,-3.89558 27.81899,-8.17965 41.85563,-11.4916c8.07915,-1.90628 16.36171,-2.81442 24.54336,-4.21698c9.59124,-1.64421 19.18111,-3.29639 28.77347,-4.93403c-0.51729,-14.65375 -1.40077,-36.42996 16.89299,-36.52516c14.55428,-0.07574 18.40199,20.88102 20.76517,33.49629c3.06473,0.11302 5.67488,2.00562 6.82755,4.6749c16.14117,-2.27287 32.33165,-4.30701 48.4123,-6.65211c20.54562,-2.99624 41.18582,-6.87344 61.83723,-9.00232c7.79149,-0.8032 15.66258,-0.3055 23.49402,-0.45052c5.15085,-0.09539 10.33302,-0.86015 15.45283,-0.29196c0.51466,-0.09109 1.02955,-0.1811 1.54468,-0.26999c5.09143,-0.87851 10.18309,-1.7557 15.27463,-2.63356c5.09154,-0.87785 10.10819,-2.58487 15.27463,-2.63356l15.12807,-2.60829c0.47388,-0.09055 0.96308,-0.13795 1.46334,-0.13795c3.25544,0 6.04208,2.00722 7.18982,4.85157c12.23992,-4.56044 25.99657,-8.4974 29.04107,-9.50543zM229.06706,261.41889c-1.86931,-1.95377 -2.97421,-6.62001 -3.09945,-9.685c-2.62013,-4.31453 -4.3535,-9.28279 -4.95993,-10.92044c-1.90972,-5.15712 -1.80475,-10.84964 -2.6907,-16.27716c-0.02874,-0.17606 -0.05744,-0.35213 -0.08608,-0.52822c-1.98339,0.51693 -3.96785,1.02894 -5.9535,1.53536c-11.60089,2.9587 -23.71004,4.69773 -35.45248,7.02176c-20.55184,4.06755 -41.24946,9.27465 -61.99667,12.17786c-2.1479,0.30056 -4.2642,0.16397 -6.35823,-0.25868c-4.19837,3.19128 -8.39447,6.38137 -12.61256,9.52706c-4.14174,3.08876 -8.16446,6.34389 -12.42523,9.26627c-2.19282,1.50401 -5.40798,1.79576 -6.90604,3.99265c-1.29254,1.89549 -2.45502,5.66802 -0.49761,6.86472c3.03132,1.85325 7.08792,-0.80621 10.63807,-0.66516c10.32519,0.41022 20.54541,2.2361 30.81301,3.39981c5.78686,0.65587 11.62927,-0.78103 17.40416,-1.53503c10.24637,-1.33781 20.49757,-2.6383 30.74636,-3.95745c10.24879,-1.31915 20.49757,-2.6383 30.74636,-3.95745c7.90308,-1.01723 15.89978,-1.46447 23.71076,-3.03994c3.26769,-0.65909 6.51635,-1.40367 9.75536,-2.19159c-0.26472,-0.25003 -0.52368,-0.50607 -0.77559,-0.76936zM232.24689,203.74849c-0.63556,-1.19167 -1.21382,-2.40023 -1.7368,-3.62323c0.16162,1.48329 0.33742,2.96389 0.52471,4.44236c0.48548,-0.13139 0.97093,-0.26295 1.45634,-0.39466c-0.08886,-0.1445 -0.17044,-0.28608 -0.24425,-0.42447zM211.60788,143.09562c0.07749,-3.06417 0.14212,-6.1053 0.14212,-9.09562c0,-1.17981 -0.00159,-3.43721 -0.00104,-6.14006c-14.01053,3.45038 -28.02255,6.89475 -42.04159,10.30976c3.43247,0.92904 6.73335,1.82618 9.08551,2.18891c10.86195,1.67506 21.84,2.44224 32.815,2.73702zM427.27842,74.84346c-4.15427,0.60583 -8.30853,1.21166 -12.4628,1.81749c0.93039,0.19202 1.86567,0.37073 2.80397,0.54141c3.19767,-0.87105 6.4243,-1.63024 9.65883,-2.3589zM501.09366,76.63304c0.04688,-0.01563 0.09376,-0.03126 0.14063,-0.04689c7.02518,-2.7437 14.05669,-5.47472 21.1037,-8.15583c-1.74044,0.41322 -3.48214,0.82686 -5.226,1.23879c-20.11313,4.75113 -40.22625,9.50226 -60.33938,14.2534c-3.61846,0.85475 -7.2614,1.66551 -10.91053,2.47272c2.28144,1.57916 4.48832,3.32089 6.66513,5.12336c16.28733,-4.70343 32.53166,-9.54067 48.56646,-14.88556zM215.92246,208.59258c-0.39377,-2.98674 -0.74855,-5.9782 -1.04939,-8.97527c-0.03943,-0.39427 -0.56113,-5.60601 -1.16663,-11.66358c-4.23654,1.68946 -8.47309,3.37892 -12.70963,5.06838c-17.48815,8.59067 -34.9763,17.18134 -52.46446,25.77201c-4.51054,2.2157 -9.37803,3.82726 -13.70422,6.35191c2.85644,-0.60321 5.714,-1.20053 8.57732,-1.76723c15.20506,-3.00934 30.41012,-6.01867 45.61519,-9.02801c6.567,-1.29972 13.21694,-2.23314 19.70196,-3.89422c2.40132,-0.61508 4.80122,-1.23667 7.19986,-1.86399zM233.3008,219.99151c0.05878,0.36829 0.1177,0.73657 0.1767,1.10484c0.02872,-0.39193 0.05696,-0.7839 0.08476,-1.1759c-0.08715,0.02369 -0.17431,0.04738 -0.26146,0.07106zM228.64722,138.09253c-0.45834,-1.70863 -0.91663,-3.41738 -1.37523,-5.12614c0.00054,1.89151 -0.00188,3.78304 -0.00529,5.67456c0.46017,-0.18281 0.92035,-0.36562 1.38053,-0.54843z" stroke="none" stroke-width="0.5"/><path d="M99.12467,568.61219v-566.61219h791.37533v566.61219z" stroke="#000000" stroke-width="2"/><path d="M886.5,273.61219v-1h1v1z" stroke="#000000" stroke-width="2"/><path d="M121.5,245.61219v-1h1v1z" stroke="#000000" stroke-width="2"/><path d="M45.5,540.77562v-536.16342h95v536.16342z" stroke="#000000" stroke-width="2"/><path d="M0,740.26105v-869.25504h969.96997v869.25504z" stroke="none" stroke-width="0"/></g></g></svg>