<svg version="1.1" xmlns="http://www.w3.org/2000/svg" xmlns:xlink="http://www.w3.org/1999/xlink" width="376" height="375" viewBox="0,0,376,375"><g transform="translate(-186.5,-91.5)"><g data-paper-data="{&quot;isPaintingLayer&quot;:true}" fill-rule="nonzero" stroke-linejoin="miter" stroke-miterlimit="10" stroke-dasharray="" stroke-dashoffset="0" style="mix-blend-mode: normal"><path d="M274,94h286v370h-370v-306.98496" fill="none" stroke="#646464" stroke-width="5" stroke-linecap="butt"/><path d="M190,463v-106h106v106z" fill="none" stroke="#646464" stroke-width="5" stroke-linecap="butt"/><path d="M297,404l96,-1l-1,61" fill="none" stroke="#646464" stroke-width="5" stroke-linecap="round"/><path d="M340,441v-10h10v10z" fill="#ffffff" stroke="#ffffff" stroke-width="5" stroke-linecap="butt"/><path d="M392,403l167,-2" fill="none" stroke="#646464" stroke-width="5" stroke-linecap="round"/><path d="M297,402v-172h174v172z" fill="none" stroke="#646464" stroke-width="5" stroke-linecap="butt"/><path d="M276,95l-1,62l-84,2" fill="none" stroke="#646464" stroke-width="5" stroke-linecap="round"/><path d="M276,156l282,-3" fill="none" stroke="#646464" stroke-width="5" stroke-linecap="round"/><path d="M371,96l1,59" fill="none" stroke="#646464" stroke-width="5" stroke-linecap="round"/><path d="M478,95l1,57" fill="none" stroke="#646464" stroke-width="5" stroke-linecap="round"/><path d="M297,231l-108,1" fill="none" stroke="#646464" stroke-width="5" stroke-linecap="round"/><path d="M471,307h89" fill="none" stroke="#646464" stroke-width="5" stroke-linecap="round"/><path d="M298,162v-14h52v14z" fill="#2b2b2b" stroke="none" stroke-width="0" stroke-linecap="butt"/><path d="M399,162v-14h52v14z" fill="#2b2b2b" stroke="none" stroke-width="0" stroke-linecap="butt"/><path d="M493,161v-14h52v14z" fill="#2b2b2b" stroke="none" stroke-width="0" stroke-linecap="butt"/><path d="M218,239v-14h52v14z" fill="#2b2b2b" stroke="none" stroke-width="0" stroke-linecap="butt"/><path d="M489,313v-14h52v14z" fill="#2b2b2b" stroke="none" stroke-width="0" stroke-linecap="butt"/><path d="M488,410v-14h52v14z" fill="#2b2b2b" stroke="none" stroke-width="0" stroke-linecap="butt"/><path d="M400,452h-14v-36h14z" fill="#2b2b2b" stroke="none" stroke-width="0" stroke-linecap="butt"/><path d="M319,409v-14h52v14z" fill="#2b2b2b" stroke="none" stroke-width="0" stroke-linecap="butt"/><path d="M463.86797,328.3849l13.99976,-0.08204l0.30471,51.99911l-13.99976,0.08204z" fill="#2b2b2b" stroke="none" stroke-width="0" stroke-linecap="butt"/></g></g></svg>