<svg xmlns="http://www.w3.org/2000/svg" xmlns:xlink="http://www.w3.org/1999/xlink" version="1.1" width="127.231201171875" height="183.35000610351562" viewBox="-0.4999961033463478 -0.499969445168972 127.231201171875 183.35000610351562"><g><g data-paper-data="{&quot;isPaintingLayer&quot;:true}" fill-rule="nonzero" stroke-linecap="butt" stroke-linejoin="miter" stroke-miterlimit="10" stroke-dasharray="" stroke-dashoffset="0" font-family="none" font-weight="none" font-size="none" text-anchor="none" style="mix-blend-mode: normal"><g id="Group-5"><path d="M 71.7329 114.3121 C 71.7329 114.3121 75.3279 118.9121 75.4279 119.3121 C 75.5279 119.7121 77.2249 126.6121 77.2249 126.6121 C 77.2249 126.6121 75.9269 141.2121 75.8269 141.5121 C 75.7269 141.8121 69.4369 163.3121 69.4369 163.3121 L 61.7999 180.9121 L 59.9969 177.1121 L 54.3609 162.4121 L 50.3669 148.5031 L 47.3679 132.8121 C 47.3679 132.8121 47.4709 127.4121 47.3709 126.7121 C 47.2709 126.0121 49.1689 115.0121 56.2569 112.7121 C 63.3459 110.4121 68.6389 112.7121 68.6389 112.7121 Z " id="Shape" fill="#f7ec1e" stroke-width="1" stroke="none"/><path d="M 68.6389 127.6121 C 69.3379 130.0121 67.6389 140.0121 67.6389 140.0121 L 63.3459 152.0121 C 63.3459 152.0121 60.0509 144.6121 57.6549 137.5121 C 55.2589 130.4121 57.0559 125.3121 57.6549 124.2121 C 58.2539 123.1111 60.5499 121.5121 60.5499 121.5121 C 67.4389 121.1111 67.9389 125.2121 68.6389 127.6121 Z " id="Shape" fill="#fbf5a8" stroke-width="1" stroke="none"/></g><g id="Group-6"><path d="M 69.0379 4.1121 L 78.2229 11.0121 L 82.9159 16.7121 L 86.8099 23.9121 L 89.6479 32.5121 L 93.8989 51.7571 L 96.6949 74.8121 L 97.2939 95.7121 L 94.4979 97.8121 L 81.3189 102.6121 L 70.5359 104.7121 L 63.3469 104.7121 L 56.5569 104.7121 L 43.4779 102.3121 L 31.6189 98.7121 L 27.4039 96.5121 L 26.1049 77.3121 L 25.1069 61.4121 L 25.9059 46.6121 L 29.4999 30.6121 L 32.8319 19.1121 L 41.1819 7.6121 L 50.7669 2.7121 L 58.1549 1.3121 L 69.0379 4.1121 " id="Shape" fill="#c1b4d8" stroke-width="1" stroke="none"/><path d="M 96.2949 81.6121 L 97.2939 95.3121 L 94.5979 97.4121 L 83.4149 101.8121 L 71.4339 104.5121 L 61.2999 104.7121 L 49.1609 103.8121 L 36.2889 100.5121 L 27.7029 97.0121 L 26.3049 83.7121 L 32.1959 86.5621 L 41.3809 89.3121 L 52.5639 91.5121 L 65.5439 91.5121 L 74.3899 91.5121 L 82.4169 89.3121 L 90.8139 85.6121 L 96.2949 81.6121 " id="Shape" fill="#897ab8" stroke-width="1" stroke="none"/><path d="M 66.9409 65.8121 L 68.6389 70.8121 L 68.2389 81.6121 L 66.9409 99.1121 L 64.4449 125.8121 L 62.9469 128.0121 L 59.9969 110.4121 L 58.0549 90.3121 L 58.0549 71.0121 L 59.5529 65.8121 L 62.2479 63.8121 L 66.9409 65.8121 " id="Shape" fill="#ef463c" stroke-width="1" stroke="none"/><path d="M 24.5079 60.9121 L 27.5029 96.9121 L 22.6109 100.7121 L 20.0149 108.4121 L 21.2129 121.5121 L 22.8109 128.0121 L 21.8119 128.0121 L 13.6249 118.6121 L 4.2399 96.7121 L 1.6439 86.9121 L 0.8449 76.6121 L 3.0419 67.7121 L 9.6309 60.9121 L 15.6219 59.3111 L 24.5079 60.9121 " id="Shape" fill="#ef463c" stroke-width="1" stroke="none"/><path d="M 102.6849 58.5461 L 111.0709 61.1121 L 116.4629 67.3121 L 118.4599 73.4121 L 118.4599 86.7121 L 113.7669 104.3121 L 107.5769 118.6121 L 106.4789 117.8121 L 107.0779 108.0121 L 105.8789 102.1121 L 102.9839 98.0121 L 97.2939 95.3121 L 95.4959 60.7121 C 98.2919 58.5121 102.6849 58.5461 102.6849 58.5461 Z " id="Shape" fill="#ef463c" stroke-width="1" stroke="none"/><path d="M 71.2339 6.0121 L 64.5449 9.2121 L 57.1559 10.3121 L 51.1659 9.5121 L 45.1749 7.5121 L 43.6779 6.5121 L 51.2649 2.1121 L 58.4539 1.3121 L 64.3439 1.8121 L 70.3349 4.5121 L 71.2339 6.0121 " id="Shape" fill="#ef463c" stroke-width="1" stroke="none"/><g id="Group-4"><path d="M 31.2829 54.1061 C 32.0209 54.0901 32.5709 54.4421 32.6959 54.9701 C 32.7949 55.3891 32.8769 55.8511 32.8039 56.2651 C 32.6909 56.9061 31.9069 57.1161 31.5109 56.4911 C 31.3109 56.1731 31.0009 55.9271 30.7769 55.6221 C 30.5549 55.3191 30.2339 54.9571 30.5179 54.5941 C 30.7269 54.3271 31.1209 54.2041 31.2829 54.1061 Z " id="Shape" stroke-width="1" fill="#32419a" stroke="none"/><path d="M 48.9329 59.9141 C 48.6519 59.4311 48.4099 59.0351 48.1869 58.6301 C 47.9329 58.1661 48.0289 57.6071 48.3909 57.3371 C 48.7629 57.0601 49.2449 57.1461 49.6509 57.5771 C 49.8029 57.7381 49.9489 57.9111 50.0669 58.0971 C 50.4219 58.6561 50.3279 59.1281 49.7749 59.4841 C 49.5149 59.6511 49.2219 59.7691 48.9329 59.9141 Z " id="Shape" stroke-width="1" fill="#32419a" stroke="none"/><path d="M 88.4829 52.7951 C 88.8609 52.0831 89.3809 51.6541 90.1699 51.7791 C 90.5619 51.8411 90.8539 52.6301 90.8089 53.2551 C 90.7739 53.7501 90.4719 53.9921 90.0319 54.0841 C 89.3489 54.2261 89.0289 53.9561 88.4829 52.7951 Z " id="Shape" stroke-width="1" fill="#32419a" stroke="none"/><path d="M 73.3419 57.5121 C 73.7949 57.3631 74.2019 57.2281 74.5939 57.0991 C 75.4129 57.7601 75.6049 58.2491 75.3029 58.8531 C 75.1469 59.1661 74.6299 59.3851 74.2309 59.2881 C 73.2639 59.0531 73.5319 58.2191 73.3419 57.5121 Z " id="Shape" stroke-width="1" fill="#32419a" stroke="none"/></g><path d="M 24.0559 59.7631 C 24.1119 58.3591 24.2269 57.0891 24.1959 55.8241 C 24.1579 54.2791 24.3339 52.7611 24.5149 51.2361 C 24.6279 50.2811 24.6489 49.3161 24.7569 48.3611 C 24.9299 46.8361 25.2009 45.3211 25.3199 43.7941 C 25.4429 42.2081 26.0069 40.7381 26.3309 39.2071 C 26.7429 37.2611 27.0479 35.2931 27.4949 33.3571 C 27.7519 32.2451 27.6949 31.0441 28.3659 30.0331 C 28.4799 29.8601 28.4599 29.5991 28.5039 29.3791 C 28.7549 28.1311 28.9459 26.8661 29.2749 25.6391 C 29.6479 24.2501 30.0599 22.8581 30.6099 21.5321 C 31.3169 19.8301 32.1269 18.1651 32.9829 16.5311 C 34.1509 14.3021 35.5509 12.2011 37.2999 10.3951 C 38.6469 9.0041 40.0019 7.6241 41.5829 6.4441 C 43.3819 5.1011 45.3809 4.0971 47.1819 2.7751 C 47.6259 2.4491 48.1729 2.0891 48.8559 2.3281 C 49.0409 2.3921 49.3259 2.1741 49.5619 2.0791 C 50.4719 1.7161 51.3739 1.3371 52.2919 0.9971 C 52.4439 0.9401 52.6569 1.0681 52.8429 1.0731 C 53.3659 1.0871 53.9069 1.2061 54.3149 0.6891 C 54.4319 0.5401 54.7019 0.4881 54.9139 0.4431 C 55.5379 0.3111 56.1739 0.2311 56.7929 0.0831 C 57.4389 -0.0709 58.0059 -0.0679 58.3079 0.5971 C 60.1589 0.2921 61.9189 0.4401 63.6629 0.8091 C 64.1889 0.9211 64.7019 1.1321 65.1939 1.3571 C 66.9329 2.1511 68.6859 2.9201 70.3819 3.8021 C 71.2199 4.2381 71.9439 4.8971 72.7199 5.4551 C 72.7729 5.4921 72.8209 5.5461 72.8789 5.5631 C 74.2739 5.9531 74.9389 7.2281 75.9439 8.0901 C 76.9109 8.9191 77.9859 9.6331 78.8789 10.5311 C 79.8329 11.4911 80.9819 12.2551 81.6409 13.5381 C 82.0839 14.4001 82.9039 15.0601 83.4919 15.8561 C 84.8799 17.7391 86.2109 19.6831 87.1299 21.8281 C 87.9799 23.8141 88.5339 25.9281 89.2149 27.9851 C 89.2759 28.1681 89.2749 28.3851 89.3749 28.5381 C 90.3439 30.0181 90.4759 31.7641 90.9259 33.4061 C 91.3069 34.7951 91.6319 36.2011 91.9749 37.6001 C 92.4559 39.5531 92.9709 41.4981 93.3939 43.4631 C 93.6699 44.7451 93.8869 46.0511 93.9859 47.3571 C 94.0889 48.7061 94.4209 49.9991 94.6479 51.3191 C 94.8919 52.7311 94.9809 54.1691 95.1289 55.5961 C 95.2359 56.6161 95.3189 57.6381 95.4399 58.6561 C 95.4669 58.8871 95.6039 59.1051 95.7119 59.3821 C 95.9069 59.2681 96.0349 59.2291 96.1129 59.1431 C 97.2699 57.8631 98.8439 57.4411 100.4319 57.2831 C 103.2409 57.0041 105.9779 57.4561 108.5989 58.5491 C 111.0979 59.5931 112.8979 61.4521 114.4809 63.5701 C 114.5629 63.6791 114.7299 63.8131 114.8379 63.7981 C 115.2649 63.7411 115.4849 64.0221 115.7329 64.2701 C 116.6529 65.1911 117.2339 66.3241 117.7389 67.5031 C 117.9639 68.0291 118.0829 68.6241 118.4029 69.0821 C 119.0409 69.9981 119.1239 71.0701 119.3739 72.0871 C 119.9359 74.3731 120.0709 76.7131 119.9529 79.0571 C 119.8779 80.5291 119.6749 81.9941 119.5379 83.4631 C 119.5019 83.8461 119.4969 84.2311 119.4799 84.6161 C 119.3739 87.2231 118.7119 89.7451 118.2879 92.3041 C 118.1159 93.3471 117.9259 94.3911 117.6719 95.4171 C 117.4349 96.3781 117.0949 97.3121 116.8149 98.2631 C 116.4349 99.5531 116.1209 100.8641 115.6849 102.1351 C 115.0219 104.0671 114.3179 105.9891 113.5559 107.8841 C 112.9019 109.5101 112.0739 111.0671 111.4469 112.7011 C 110.7149 114.6111 109.7269 116.3911 108.8439 118.2241 C 108.3059 119.3411 107.6459 120.4131 106.9319 121.4291 C 106.5989 121.9031 106.0389 122.2481 105.5219 122.5511 C 105.0409 122.8361 104.2899 122.4241 104.2009 121.8521 C 104.1439 121.4891 104.1489 121.0831 104.2549 120.7341 C 104.4299 120.1571 104.6819 119.5991 104.9489 119.0581 C 105.7909 117.3431 106.3259 115.5491 106.4319 113.6321 C 106.4769 112.8031 106.6629 111.9711 106.6229 111.1481 C 106.5709 110.0351 106.4219 108.9161 106.2079 107.8221 C 105.9259 106.3911 105.6459 104.9441 105.1769 103.5691 C 104.2819 100.9481 102.6069 98.9131 100.1819 97.5301 C 99.9049 97.3721 99.6579 97.1631 99.3819 97.0061 C 99.1329 96.8651 98.8619 96.7621 98.7009 96.6891 C 97.5659 97.1971 96.4889 97.6471 95.4409 98.1591 C 94.5519 98.5931 93.7059 99.1171 92.8229 99.5671 C 91.6599 100.1591 90.5049 100.7861 89.1689 100.9211 C 89.0809 100.9301 88.9939 100.9931 88.9159 101.0441 C 87.5699 101.9151 85.9719 102.0661 84.5049 102.5911 C 83.7869 102.8491 83.0739 103.1341 82.3379 103.3271 C 81.5679 103.5311 80.7739 103.6401 79.9889 103.7901 C 79.6759 103.8511 79.3629 103.9271 79.0469 103.9641 C 78.2379 104.0581 77.4409 104.1351 77.2089 105.1511 C 77.1849 105.2571 76.8229 105.3901 76.6769 105.3401 C 76.4089 105.2471 76.1849 105.0271 75.8389 104.7901 C 73.1509 104.9111 70.3479 105.8051 67.3609 105.1681 C 67.2499 106.2781 67.1119 107.2891 67.0589 108.3051 C 67.0099 109.2881 67.0489 110.2751 67.0489 111.3381 C 67.5669 111.5041 68.1609 111.7231 68.7719 111.8831 C 69.6369 112.1101 70.5449 112.2111 71.3749 112.5261 C 71.9099 112.7291 72.3769 113.1781 72.8029 113.5901 C 73.9369 114.6901 74.8959 115.9361 75.6999 117.2981 C 76.1489 118.0591 76.6689 118.7891 77.0199 119.5931 C 77.4279 120.5261 77.8349 121.5041 77.9829 122.5001 C 78.4259 125.5031 78.6189 128.5211 78.1349 131.5541 C 77.9649 132.6191 77.9799 133.7161 77.9429 134.7981 C 77.8949 136.1681 77.8089 137.5271 77.5119 138.8741 C 77.0609 140.9191 76.6749 142.9791 76.2449 145.0291 C 76.1669 145.4021 75.9959 145.7551 75.8909 146.1241 C 75.6589 146.9471 75.4529 147.7771 75.2169 148.5991 C 74.9519 149.5191 74.6929 150.4421 74.3799 151.3471 C 74.0259 152.3731 73.6029 153.3741 73.2369 154.3961 C 73.0869 154.8151 73.0349 155.2691 72.8899 155.6911 C 72.2189 157.6491 71.4049 159.5561 70.9979 161.6071 C 70.8589 162.3061 70.4059 162.9391 70.1299 163.6151 C 69.3349 165.5661 68.5779 167.5321 67.7629 169.4741 C 66.9599 171.3871 66.0989 173.2751 65.2719 175.1771 C 64.9449 175.9321 64.6219 176.6901 64.3349 177.4601 C 63.9219 178.5691 63.5549 179.6971 63.1399 180.8051 C 62.9969 181.1911 62.7999 181.5671 62.5709 181.9081 C 62.2059 182.4511 61.5729 182.4921 61.1059 182.0401 C 61.0139 181.9511 60.9169 181.8541 60.8639 181.7421 C 60.4559 180.8831 60.0139 180.0361 59.6659 179.1541 C 58.8319 177.0401 58.0389 174.9091 57.2379 172.7821 C 57.0819 172.3651 56.9259 171.9421 56.8349 171.5081 C 56.5259 170.0361 56.0079 168.6421 55.4129 167.2631 C 54.4499 165.0331 53.6909 162.7281 53.0489 160.3831 C 52.5009 158.3791 52.0329 156.3381 51.2789 154.4111 C 50.3739 152.0981 49.9699 149.6611 49.2319 147.3091 C 48.7669 145.8271 48.6069 144.2471 48.3189 142.7111 C 47.9899 140.9541 47.6389 139.2001 47.3589 137.4361 C 47.2109 136.4991 47.2179 135.5381 47.1069 134.5931 C 47.0379 134.0061 46.8689 133.4321 46.7679 132.8491 C 46.6909 132.4081 46.5929 131.9591 46.6039 131.5171 C 46.6409 130.1051 46.6819 128.6911 46.7979 127.2851 C 46.9679 125.2101 47.3089 123.1661 48.1409 121.2331 C 48.3059 120.8501 48.4209 120.4451 48.5839 120.0611 C 49.2619 118.4741 49.9439 116.8871 50.6389 115.3081 C 50.7389 115.0811 50.8849 114.8491 51.0689 114.6901 C 52.8769 113.1351 54.7629 111.7061 57.1539 111.1631 C 57.7089 111.0371 58.2769 110.9671 58.9119 110.8571 C 58.7389 109.1231 58.5729 107.4471 58.3939 105.6461 C 57.8519 105.6461 57.3669 105.6581 56.8829 105.6391 C 56.6639 105.6301 56.4469 105.5621 56.2299 105.5111 C 56.0489 105.4691 55.8579 105.3431 55.6929 105.3721 C 54.7059 105.5421 53.7559 105.2851 52.7969 105.1561 C 51.8469 105.0261 50.9029 104.8501 49.9559 104.7001 C 49.2079 104.5801 48.4439 104.5291 47.7129 104.3411 C 45.7139 103.8271 43.6869 103.4421 41.7279 102.7361 C 39.9949 102.1111 38.1659 101.7521 36.3819 101.2621 C 36.0529 101.1721 35.7439 101.0131 35.4229 100.8911 C 34.2359 100.4391 33.0439 99.9961 31.8599 99.5371 C 31.4159 99.3641 30.9839 99.1591 30.5489 98.9631 C 29.9989 98.7161 29.4569 98.4521 28.9009 98.2211 C 28.7299 98.1501 28.5089 98.1051 28.3369 98.1501 C 26.0769 98.7431 24.0659 99.7631 22.8449 101.8551 C 22.3849 102.6421 22.1979 103.5881 21.8789 104.4581 C 21.6019 105.2121 21.4409 105.9791 21.4119 106.7881 C 21.3889 107.4571 21.2509 108.1221 21.1829 108.7901 C 21.1409 109.2041 21.0879 109.6271 21.1219 110.0381 C 21.2449 111.5681 21.5219 113.0961 21.5139 114.6231 C 21.5039 116.2461 21.9999 117.7691 22.1619 119.3541 C 22.4189 121.8701 22.8669 124.3631 23.5139 126.8151 C 23.7249 127.6141 23.8919 128.4271 24.0309 129.2411 C 24.0599 129.4121 23.9259 129.7001 23.7789 129.7891 C 23.5909 129.9031 23.2929 129.9481 23.0799 129.8881 C 22.4809 129.7201 21.9099 129.4461 21.3089 129.2841 C 20.5429 129.0781 20.3129 128.3471 19.8239 127.8721 C 19.6459 127.7001 19.5729 127.4111 19.3849 127.2571 C 18.1059 126.2071 17.3009 124.7461 16.1699 123.5681 C 15.5269 122.8991 14.9529 122.1941 14.6879 121.2551 C 14.5639 120.8151 14.2389 120.3901 13.9029 120.0611 C 12.9359 119.1101 12.5149 117.8491 11.8819 116.7071 C 11.6199 116.2351 11.2969 115.7951 11.0449 115.3181 C 9.9509 113.2511 8.8279 111.1981 7.8059 109.0951 C 7.0789 107.6011 6.4309 106.0611 5.8679 104.4991 C 5.2519 102.7861 4.7779 101.0231 4.2329 99.2851 C 3.4859 96.9011 2.7009 94.5281 1.9889 92.1341 C 1.4859 90.4451 1.0139 88.7401 0.6509 87.0171 C 0.4219 85.9271 0.5309 84.7641 0.2859 83.6801 C -0.0671 82.1171 0.2089 80.5561 0.0829 79.0011 C -0.0161 77.7851 -0.0371 76.5781 0.0789 75.3581 C 0.2579 73.4631 0.6029 71.6251 1.4349 69.8951 C 1.7539 69.2321 1.9219 68.4891 2.2929 67.8621 C 3.2359 66.2671 4.2789 64.7321 5.2329 63.1431 C 5.8559 62.1051 6.8539 61.5901 7.8039 60.9371 C 8.7989 60.2521 9.8519 59.7711 10.9549 59.3531 C 11.9609 58.9721 12.9889 58.6491 14.0079 58.3021 C 14.0689 58.2811 14.1339 58.2621 14.1959 58.2641 C 15.2399 58.3001 16.2919 58.2761 17.3259 58.3981 C 18.3979 58.5231 19.4449 58.8811 20.5169 58.9691 C 21.6959 59.0641 22.8719 59.0821 24.0559 59.7631 Z M 26.7299 45.8851 C 27.0739 46.4301 27.2959 46.8341 27.5669 47.2011 C 28.0219 47.8201 28.6569 48.2441 29.2359 48.7371 C 30.1949 49.5571 31.3229 50.0341 32.4379 50.4041 C 34.3549 51.0401 36.2759 51.6931 38.3079 51.9901 C 40.8639 52.3631 43.3819 52.9911 45.9939 52.8311 C 46.0889 52.8251 46.1849 52.8441 46.2819 52.8521 C 48.2589 53.0041 50.2339 53.2241 52.2139 53.2911 C 54.8729 53.3801 57.5349 53.3461 60.1959 53.3781 C 60.7369 53.3851 61.2769 53.4641 61.8189 53.4851 C 62.6809 53.5171 63.5509 53.5961 64.4069 53.5331 C 66.4139 53.3861 68.4159 53.1751 70.4179 52.9721 C 71.5939 52.8521 72.7669 52.7041 73.9399 52.5611 C 74.7929 52.4581 75.6459 52.3491 76.4969 52.2271 C 76.9939 52.1561 77.4879 52.0591 77.9819 51.9631 C 78.4799 51.8651 78.9779 51.7631 79.4729 51.6511 C 80.1559 51.4981 80.8399 51.3531 81.5149 51.1691 C 81.9119 51.0611 82.2829 50.8461 82.6819 50.7471 C 84.4939 50.2991 86.2049 49.6421 87.6929 48.4761 C 87.9679 48.2611 88.2829 48.0521 88.6119 47.9631 C 89.1559 47.8151 89.4779 47.4431 89.7759 47.0261 C 90.3819 46.1771 90.9209 45.2731 91.5959 44.4851 C 91.8979 44.1331 91.9539 43.8851 91.8479 43.4821 C 91.4029 41.7851 90.9789 40.0831 90.5509 38.3811 C 90.5049 38.1971 90.4149 37.9851 90.4649 37.8241 C 90.6069 37.3661 90.3959 37.0221 90.2139 36.6441 C 90.0759 36.3591 89.9939 36.0451 89.9099 35.7371 C 89.6739 34.8741 89.4599 34.0041 89.2179 33.1421 C 88.9669 32.2491 88.8199 31.2961 88.3979 30.4891 C 87.9579 29.6461 87.7509 28.7641 87.4909 27.8781 C 87.3849 27.5141 87.2249 27.1661 87.0829 26.8131 C 86.7049 25.8661 86.1889 24.9511 85.9749 23.9681 C 85.5839 22.1751 84.7029 20.6501 83.6589 19.2101 C 82.9189 18.1891 81.9899 17.3091 81.7019 16.0031 C 81.6389 15.7151 81.3789 15.4511 81.1649 15.2191 C 79.5149 13.4371 77.9429 11.5781 76.0489 10.0391 C 74.6929 8.9371 73.3289 7.8451 72.0849 6.8441 C 71.4649 7.1411 70.9929 7.3901 70.5029 7.5981 C 68.7809 8.3291 67.0889 9.1531 65.3169 9.7361 C 63.8839 10.2091 62.3599 10.4151 60.8659 10.6821 C 59.8929 10.8551 58.9039 10.9301 57.9209 11.0401 C 57.3209 11.1071 56.6899 11.2981 56.1209 11.1851 C 55.0079 10.9631 53.8839 11.1371 52.7449 10.7291 C 51.2329 10.1871 49.5399 10.1711 47.9759 9.7421 C 46.8509 9.4321 45.7859 8.8611 44.7399 8.3161 C 44.2259 8.0481 43.8179 7.5741 43.3699 7.2011 C 42.4669 7.9151 41.5759 8.5171 40.8099 9.2501 C 39.8179 10.2001 38.8949 11.2281 38.0029 12.2741 C 37.2769 13.1261 36.6329 14.0491 35.9659 14.9491 C 34.9269 16.3511 34.1729 17.9121 33.5969 19.5461 C 33.2279 20.5931 32.4909 21.4481 32.3069 22.6101 C 32.1049 23.8841 31.5749 25.1041 31.2319 26.3591 C 30.8849 27.6221 30.5729 28.8961 30.2799 30.1721 C 30.1379 30.7871 29.9909 31.4211 29.9949 32.0451 C 29.9989 32.6821 29.8619 33.2451 29.5909 33.8011 C 29.4509 34.0871 29.2849 34.3771 29.2229 34.6831 C 28.9159 36.1891 28.6889 37.7121 28.0699 39.1411 C 27.9339 39.4541 27.9449 39.8291 27.8779 40.1751 C 27.8239 40.4581 27.7819 40.7471 27.6909 41.0191 C 27.1399 42.6671 26.8319 44.3601 26.7299 45.8851 Z M 26.3089 49.1081 C 26.2499 49.5391 26.1919 49.8801 26.1589 50.2241 C 26.0759 51.1171 26.0129 52.0111 25.9229 52.9041 C 25.7949 54.1751 25.4609 55.4301 25.7299 56.7291 C 25.8199 57.1621 25.8289 57.6371 25.7589 58.0741 C 25.4689 59.8901 25.5779 61.7091 25.6699 63.5251 C 25.7989 66.0851 25.9639 68.6421 26.1509 71.1981 C 26.2319 72.3141 26.4769 73.4201 26.5249 74.5361 C 26.6419 77.2861 26.6249 80.0421 26.9139 82.7851 C 26.9529 83.1631 27.0909 83.2911 27.4939 83.3771 C 28.1199 83.5101 28.7899 83.7071 29.2969 84.0761 C 31.0629 85.3651 33.1279 85.9841 35.1109 86.7661 C 36.5309 87.3251 38.0319 87.6911 39.5119 88.0841 C 41.3579 88.5741 43.2099 89.0461 45.0769 89.4461 C 46.6079 89.7751 48.1569 90.0331 49.7089 90.2311 C 50.6399 90.3511 51.5939 90.2951 52.5369 90.3221 C 53.9359 90.3611 55.3359 90.4061 56.7359 90.4371 C 56.9139 90.4411 57.0949 90.3711 57.3669 90.3161 C 57.2709 87.8121 57.1759 85.3441 57.0829 82.8761 C 57.0459 81.8921 56.9929 80.9101 56.9819 79.9261 C 56.9679 78.6141 56.9679 77.3011 56.9969 75.9901 C 57.0399 74.0471 57.0739 72.1031 57.1889 70.1651 C 57.2459 69.2141 57.4209 68.2581 57.6489 67.3301 C 57.8049 66.6971 57.9299 66.0131 58.4479 65.5191 C 59.0209 64.9731 59.5569 64.3871 60.1589 63.8761 C 60.5659 63.5301 61.0269 63.1111 61.5149 63.0311 C 62.3529 62.8941 63.2679 62.8381 64.0809 63.0341 C 65.4249 63.3591 66.6099 64.0511 67.4389 65.2471 C 67.7959 65.7621 68.2569 66.2041 68.6559 66.6911 C 68.7939 66.8601 68.9459 67.0531 68.9929 67.2581 C 69.1979 68.1581 69.5019 69.0621 69.5209 69.9701 C 69.5679 72.1601 69.6339 74.3601 69.2319 76.5341 C 69.2149 76.6231 69.2449 76.7201 69.2449 76.8131 C 69.2519 77.8081 69.2959 78.8041 69.2539 79.7971 C 69.1499 82.2881 69.0089 84.7791 68.8799 87.2701 C 68.8429 87.9701 68.7909 88.6711 68.7639 89.3721 C 68.7459 89.8701 68.7609 90.3691 68.7609 90.9701 C 69.3769 90.9311 69.9099 90.9071 70.4409 90.8621 C 71.1759 90.8011 71.9079 90.6731 72.6409 90.6671 C 73.9729 90.6551 75.3019 90.6441 76.5979 90.3041 C 77.2429 90.1351 77.8549 89.8241 78.5059 89.6951 C 79.7589 89.4461 80.9349 88.9961 82.1019 88.5011 C 83.0109 88.1151 83.9339 87.7621 84.8509 87.3961 C 85.7349 87.0431 86.6739 86.7881 87.4909 86.3191 C 88.7889 85.5731 90.1659 84.9881 91.4609 84.2221 C 93.1059 83.2491 94.4689 82.0721 95.4479 80.4631 C 95.7329 79.9951 95.9759 79.3511 95.8979 78.8391 C 95.6099 76.9431 96.0419 75.0011 95.4809 73.1331 C 95.4629 73.0721 95.4429 73.0031 95.4549 72.9431 C 95.7709 71.3401 95.1359 69.7791 95.2679 68.1671 C 95.3539 67.1111 95.1159 66.0261 94.9899 64.9581 C 94.9009 64.1951 94.7629 63.4381 94.6349 62.6801 C 94.3859 61.2021 94.1039 59.7291 93.8819 58.2461 C 93.7609 57.4331 93.7459 56.6031 93.6579 55.7841 C 93.5179 54.4781 93.3809 53.1701 93.1949 51.8711 C 93.0369 50.7661 92.8099 49.6711 92.6189 48.5711 C 92.5099 47.9491 92.4119 47.3251 92.2919 46.5961 C 92.0359 46.8341 91.8379 46.9591 91.7219 47.1391 C 90.7819 48.5841 89.2109 49.2931 87.9139 50.2921 C 86.8329 51.1241 85.5999 51.9191 84.1209 52.0271 C 83.9349 52.0401 83.7279 52.1041 83.5779 52.2101 C 82.6319 52.8781 81.4919 52.9391 80.4269 53.1941 C 79.0379 53.5261 77.6019 53.6581 76.2079 53.9701 C 75.3639 54.1591 74.5459 54.2951 73.6739 54.2261 C 73.1209 54.1821 72.5519 54.3171 71.9929 54.3911 C 71.2729 54.4871 70.5579 54.6381 69.8359 54.6991 C 68.8989 54.7781 67.9519 54.7481 67.0169 54.8441 C 65.3789 55.0111 63.7179 55.1641 62.0969 55.0031 C 60.0899 54.8041 58.1009 54.9821 56.1059 54.9331 C 54.7309 54.9001 53.3549 54.9401 51.9819 54.8831 C 50.2299 54.8101 48.4799 54.6731 46.7279 54.5611 C 45.9349 54.5101 45.1409 54.4601 44.3489 54.3931 C 43.2099 54.2971 42.0699 54.2031 40.9349 54.0761 C 40.3969 54.0171 39.8649 53.8941 39.3339 53.7831 C 37.4289 53.3861 35.5149 53.0251 33.6249 52.5661 C 32.5409 52.3031 31.4949 51.8801 30.4339 51.5281 C 30.2829 51.4771 30.1319 51.4211 29.9899 51.3511 C 29.4209 51.0691 28.8529 50.7851 28.2879 50.4941 C 28.0959 50.3951 27.7999 50.3121 27.7499 50.1571 C 27.5379 49.5041 26.9639 49.3901 26.3089 49.1081 Z M 21.4749 126.6281 C 21.5559 126.6041 21.6369 126.5801 21.7169 126.5561 C 21.6889 126.2841 21.6849 126.0071 21.6259 125.7421 C 21.4129 124.7741 21.1109 123.8201 20.9689 122.8431 C 20.5849 120.2161 20.1909 117.5881 19.9469 114.9461 C 19.7469 112.7881 19.2999 110.6461 19.5459 108.4441 C 19.7269 106.8241 19.5989 105.1561 20.2009 103.6061 C 20.8559 101.9231 21.2619 100.1001 22.7449 98.8461 C 23.3469 98.3371 23.7309 97.5841 24.4799 97.2311 C 24.9129 97.0271 25.3559 96.8451 25.7969 96.6581 C 26.1259 96.5181 26.3189 96.3671 26.4119 95.9281 C 26.6839 94.6451 26.2439 93.4491 26.1319 92.2171 C 26.0309 91.1101 25.8589 90.0091 25.7779 88.9001 C 25.6799 87.5321 25.8409 86.1531 25.5349 84.7881 C 25.3599 84.0111 25.3149 83.2001 25.2669 82.4011 C 25.2199 81.6071 25.2629 80.8071 25.2299 80.0111 C 25.1819 78.8371 25.0959 77.6641 25.0359 76.4901 C 25.0099 76.0101 25.0389 75.5261 24.9929 75.0491 C 24.8079 73.1381 24.5899 71.2301 24.4139 69.3181 C 24.3589 68.7171 24.4279 68.1051 24.3899 67.5011 C 24.2889 65.9031 24.1429 64.3081 24.0499 62.7091 C 23.9879 61.6591 23.9889 61.6341 22.9139 61.4971 C 21.8499 61.3601 20.7859 61.2161 19.7229 61.0741 C 18.3949 60.8951 17.0699 60.6801 15.7379 60.5461 C 14.9159 60.4641 14.0959 60.4751 13.2669 60.7121 C 11.8819 61.1081 10.5549 61.5791 9.2799 62.2821 C 7.9629 63.0071 6.8279 63.9371 5.9069 65.0651 C 5.1269 66.0181 4.5069 67.1401 3.9959 68.2681 C 3.3129 69.7781 2.7079 71.3391 2.2529 72.9311 C 1.8869 74.2091 1.6509 75.5611 1.6119 76.8881 C 1.5419 79.3171 1.7749 81.7431 1.9589 84.1701 C 2.1869 87.1691 3.0069 90.0121 3.8899 92.8501 C 4.3849 94.4401 4.9309 96.0131 5.4259 97.6031 C 5.7769 98.7311 6.0879 99.8721 6.4039 101.0111 C 6.7389 102.2171 7.3239 103.3301 7.7349 104.4961 C 8.7639 107.4111 10.0869 110.1671 11.6419 112.8271 C 13.0799 115.2861 14.5449 117.7331 15.8899 120.2431 C 16.7249 121.8031 18.0599 122.9221 19.1069 124.2901 C 19.7729 125.1631 20.6769 125.8551 21.4749 126.6281 Z M 62.8479 155.0721 C 61.8959 154.6121 61.6919 153.7091 61.3619 152.9301 C 61.0509 152.1981 60.9049 151.3981 60.6569 150.6381 C 60.0259 148.7011 59.3629 146.7751 58.7419 144.8341 C 58.1779 143.0721 57.6989 141.2821 57.1009 139.5321 C 56.1069 136.6261 55.5889 133.6541 55.6289 130.5821 C 55.6589 128.3271 55.9089 126.1091 56.8219 124.0231 C 57.1349 123.3071 57.5219 122.6081 57.9769 121.9741 C 58.5839 121.1291 59.4989 120.6421 60.4369 120.1771 C 60.0189 117.6351 59.5989 115.0951 59.1739 112.5181 C 59.0239 112.5181 58.8249 112.4741 58.6539 112.5251 C 57.9259 112.7401 57.2189 113.0471 56.4809 113.2001 C 55.6019 113.3831 54.8889 113.7961 54.2129 114.3631 C 53.7039 114.7911 53.0879 115.0201 52.6479 115.6241 C 52.3409 116.0471 51.9909 116.4441 51.7489 116.9251 C 51.6059 117.2111 51.4019 117.4651 51.2509 117.7471 C 50.4529 119.2351 49.7149 120.7531 49.2579 122.3821 C 48.9389 123.5191 48.6939 124.6801 48.4619 125.8401 C 48.3709 126.2911 48.1539 126.6811 48.2119 127.2161 C 48.3139 128.1581 48.1429 129.1281 48.1089 130.0861 C 48.0929 130.5601 48.0849 131.0401 48.1459 131.5081 C 48.2949 132.6701 48.4939 133.8271 48.6539 134.9891 C 48.7229 135.4891 48.7119 136.0001 48.7939 136.4961 C 49.0679 138.1561 49.3549 139.8141 49.6599 141.4681 C 49.8679 142.5941 50.1169 143.7121 50.3439 144.8341 C 50.3809 145.0181 50.4699 145.2401 50.4039 145.3861 C 50.1669 145.9101 50.3509 146.4011 50.4869 146.8801 C 50.6349 147.3991 50.9039 147.8841 51.0689 148.4011 C 51.4569 149.6181 51.8049 150.8491 52.1889 152.0681 C 52.4199 152.8021 52.7039 153.5181 52.9369 154.2511 C 53.2459 155.2241 53.5339 156.2051 53.8189 157.1861 C 54.1119 158.1941 54.3899 159.2051 54.6749 160.2141 C 54.9149 161.0671 55.1339 161.9261 55.4009 162.7691 C 55.7589 163.8981 56.1499 165.0161 56.5389 166.1341 C 56.7169 166.6471 56.9069 167.1581 57.1239 167.6561 C 57.7219 169.0261 58.3579 170.3811 58.9369 171.7591 C 59.3959 172.8481 59.7989 173.9621 60.2189 175.0681 C 60.5019 175.8121 60.7499 176.5711 61.0559 177.3061 C 61.2579 177.7891 61.5359 178.2401 61.8509 178.8401 C 62.1929 177.9761 62.4819 177.3141 62.7179 176.6341 C 63.1069 175.5151 63.5759 174.4421 64.1689 173.4091 C 64.7069 172.4701 65.1349 171.4601 65.5509 170.4571 C 66.2349 168.8051 66.8779 167.1361 67.5209 165.4681 C 68.0589 164.0691 68.5829 162.6641 69.0949 161.2561 C 69.5209 160.0831 69.9289 158.9031 70.3269 157.7211 C 70.7239 156.5441 71.1119 155.3641 71.4809 154.1781 C 71.7669 153.2611 71.9539 152.3081 72.3049 151.4181 C 72.5739 150.7381 72.8509 150.0851 73.0359 149.3611 C 73.4829 147.6021 74.0729 145.8781 74.3159 144.0711 C 74.4919 142.7661 75.1959 141.5971 75.2679 140.2671 C 75.2859 139.9181 75.3069 139.5621 75.3899 139.2261 C 75.8689 137.3101 76.0379 135.3551 76.1469 133.3911 C 76.2119 132.2231 76.3479 131.0571 76.3719 129.8881 C 76.4089 128.0911 76.4259 126.2911 76.3589 124.4951 C 76.3159 123.3431 75.9759 122.2471 75.3889 121.2261 C 74.7689 120.1461 74.2319 119.0171 73.6319 117.9251 C 73.4569 117.6071 73.1439 117.3641 72.9729 117.0451 C 72.6189 116.3831 72.1209 115.8461 71.5369 115.4191 C 70.1489 114.4001 68.5449 113.9111 66.8059 113.6011 C 66.5159 116.4131 66.2329 119.1601 65.9489 121.9121 C 67.0669 122.3601 67.0289 122.4041 67.9869 123.2421 C 68.5159 123.7051 68.5949 124.3441 68.9129 124.8831 C 69.6939 126.2091 69.9619 127.6851 70.0119 129.1921 C 70.0489 130.3411 69.9739 131.4961 69.9229 132.6461 C 69.8919 133.3251 69.9969 134.0431 69.4449 134.6101 C 69.3489 134.7081 69.3319 134.9141 69.3319 135.0701 C 69.3299 136.7291 68.8679 138.3101 68.3769 139.8571 C 67.9179 141.3061 67.8839 142.8691 67.0709 144.2321 C 66.6439 144.9511 66.4919 145.8331 66.2079 146.6381 C 65.7929 147.8091 65.3389 148.9681 64.9619 150.1511 C 64.6719 151.0611 64.4109 151.9901 64.2589 152.9311 C 64.1519 153.5951 64.1019 154.1861 63.3579 154.4671 C 63.1519 154.5421 63.0319 154.8431 62.8479 155.0721 Z M 108.0679 115.6091 C 108.1209 115.6281 108.1719 115.6471 108.2239 115.6671 C 108.4609 115.2301 108.7299 114.8071 108.9259 114.3541 C 109.3169 113.4461 109.6479 112.5121 110.0439 111.6061 C 110.5919 110.3521 111.2289 109.1351 111.7349 107.8641 C 112.7049 105.4301 113.8129 103.0441 114.3979 100.4681 C 114.5749 99.6891 114.7899 98.9111 115.0759 98.1671 C 115.5819 96.8501 116.0009 95.5211 116.2369 94.1201 C 116.6529 91.6601 117.1629 89.2161 117.6149 86.7611 C 117.7649 85.9421 117.9729 85.1111 117.9529 84.2891 C 117.9189 82.8111 118.3599 81.3971 118.3549 79.9091 C 118.3489 78.4681 118.3789 77.0271 118.2719 75.5881 C 118.2309 75.0491 118.2099 74.5041 118.1009 73.9781 C 117.9519 73.2611 117.7399 72.5551 117.5279 71.8531 C 117.3799 71.3641 117.2029 70.8811 117.0069 70.4091 C 116.6759 69.6131 116.3149 68.8301 115.9779 68.0371 C 115.8289 67.6841 115.6909 67.3751 115.2569 67.2411 C 114.9849 67.1571 114.7289 66.9061 114.5449 66.6691 C 114.2359 66.2711 114.0419 65.7781 113.7089 65.4071 C 112.6279 64.1991 111.6109 62.9021 110.3729 61.8761 C 108.9869 60.7261 107.2299 60.1751 105.4739 59.8231 C 104.0569 59.5381 102.6219 59.3671 101.1399 59.4631 C 99.8569 59.5471 98.6399 59.6091 97.4979 60.2911 C 96.5679 60.8471 96.0469 61.6551 96.1659 62.7181 C 96.3169 64.0461 96.5009 65.3701 96.6489 66.6991 C 96.7259 67.3961 96.7639 68.0981 96.8039 68.7991 C 96.8619 69.8161 96.8699 70.8361 96.9609 71.8491 C 97.1549 74.0451 97.4399 76.2341 97.5919 78.4331 C 97.7349 80.5081 97.7549 82.5921 97.8309 84.6721 C 97.8649 85.5991 97.9079 86.5271 97.9359 87.4541 C 97.9589 88.2201 97.9729 88.9861 97.9789 89.7521 C 97.9809 90.1351 97.9379 90.5191 97.9499 90.9011 C 97.9729 91.6651 98.0519 92.4301 98.0469 93.1931 C 98.0409 94.2251 98.0849 94.3781 99.0769 94.7561 C 100.7949 95.4121 102.3889 96.2831 103.6409 97.6371 C 104.5689 98.6411 105.4639 99.7131 106.1579 100.8841 C 106.6669 101.7411 106.8879 102.7921 107.1299 103.7821 C 107.5009 105.3061 107.8019 106.8481 108.0889 108.3911 C 108.3539 109.8111 108.5339 111.2361 108.3149 112.6931 C 108.1709 113.6561 108.1469 114.6361 108.0679 115.6091 Z M 63.1149 126.1891 C 63.1739 126.1941 63.2329 126.1991 63.2929 126.2041 C 63.3609 125.9961 63.4559 125.7931 63.4929 125.5801 C 63.6719 124.5431 63.8339 123.5041 64.0039 122.4661 C 64.2469 120.9811 64.5079 119.4991 64.7279 118.0111 C 64.8579 117.1281 64.9619 116.2381 65.0099 115.3471 C 65.0649 114.3361 64.9939 113.3181 65.0689 112.3101 C 65.1509 111.1961 65.3829 110.0941 65.4679 108.9791 C 65.6309 106.8401 65.7039 104.6931 65.8759 102.5551 C 66.0149 100.8331 66.2809 99.1221 66.4259 97.4011 C 66.5859 95.4901 66.6629 93.5731 66.7959 91.6591 C 66.8349 91.0851 66.9799 90.5191 67.0139 89.9441 C 67.1179 88.2501 67.1799 86.5531 67.2769 84.8581 C 67.3729 83.1641 67.5079 81.4711 67.5919 79.7771 C 67.6399 78.7971 67.6239 77.8141 67.6339 76.8321 C 67.6429 76.0721 67.6389 75.3121 67.6539 74.5511 C 67.6839 72.9901 67.7409 71.4301 67.7419 69.8681 C 67.7429 69.5021 67.6259 69.1121 67.4719 68.7741 C 66.8989 67.5131 66.1749 66.4071 64.9069 65.6731 C 63.3349 64.7631 62.4939 64.9021 61.2809 65.7961 C 59.6569 66.9931 58.8099 68.6981 58.9949 70.8011 C 59.0119 70.9931 59.0349 71.1941 58.9949 71.3781 C 58.6439 72.9911 58.7599 74.6281 58.7269 76.2571 C 58.7159 76.7351 58.7319 77.2141 58.7299 77.6921 C 58.7249 79.2581 58.6849 80.8241 58.7179 82.3891 C 58.7619 84.4721 58.8579 86.5531 58.9409 88.6351 C 58.9859 89.7571 59.0459 90.8771 59.1079 91.9991 C 59.1689 93.0781 59.2569 94.1571 59.3029 95.2371 C 59.3639 96.6341 59.3399 98.0371 59.4509 99.4301 C 59.6199 101.5331 59.8649 103.6301 60.0939 105.7281 C 60.3329 107.9191 60.5449 110.1151 60.8559 112.2951 C 61.2489 115.0511 61.7239 117.7971 62.1759 120.5451 C 62.2889 121.2361 62.4719 121.9151 62.5849 122.6071 C 62.7779 123.7981 62.9399 124.9951 63.1149 126.1891 Z M 61.0259 122.6271 C 60.1409 122.3361 59.6419 122.6011 59.2029 123.1811 C 58.4159 124.2211 58.0299 125.4171 57.6209 126.6331 C 57.1509 128.0311 57.1179 129.4351 57.1819 130.8671 C 57.2209 131.7621 57.1899 132.6701 57.3339 133.5491 C 57.6939 135.7551 58.2959 137.9081 58.9689 140.0361 C 59.2659 140.9791 59.6949 141.8811 60.0819 142.7941 C 60.3419 143.4071 60.6779 143.9921 60.9049 144.6181 C 61.3919 145.9651 61.8309 147.3301 62.2919 148.6881 C 62.3419 148.8391 62.4489 148.9871 62.4499 149.1371 C 62.4509 149.6081 62.7159 149.8861 63.1279 150.1791 C 63.8039 148.3921 64.4829 146.6651 65.1089 144.9181 C 65.4409 143.9921 65.6589 143.0261 65.9679 142.0901 C 66.7289 139.7821 67.4099 137.4541 67.7729 135.0431 C 67.8579 134.4801 67.9169 133.9121 67.9809 133.3451 C 68.0229 132.9631 68.0619 132.5801 68.0859 132.1961 C 68.1199 131.6591 68.1419 131.1211 68.1619 130.5841 C 68.1699 130.3661 68.1619 130.1461 68.1509 129.9281 C 68.1259 129.4251 68.1639 128.9051 68.0499 128.4221 C 67.8569 127.6131 67.5069 126.8411 67.3279 126.0301 C 67.0919 124.9581 66.4029 124.2021 65.6499 123.1871 C 65.5509 123.8751 65.4859 124.3421 65.4149 124.8081 C 65.3619 125.1541 65.3229 125.5041 65.2389 125.8441 C 64.9429 127.0481 64.5699 128.2371 64.3469 129.4541 C 64.2339 130.0741 64.1129 130.5671 63.5209 130.8951 C 63.1299 131.1121 62.7739 131.1631 62.5469 130.8041 C 62.3539 130.4971 62.1979 130.1401 62.1279 129.7861 C 61.9349 128.8121 61.7799 127.8311 61.6399 126.8481 C 61.5329 126.0931 61.4919 125.3291 61.3849 124.5751 C 61.2909 123.9191 61.1459 123.2701 61.0259 122.6271 Z M 44.6229 6.2971 C 44.9759 6.5851 45.2649 6.8201 45.5539 7.0531 C 46.5429 7.8451 47.8059 7.9331 48.9459 8.3051 C 50.2719 8.7371 51.6769 8.9361 53.0579 9.1841 C 53.8449 9.3261 54.6569 9.4711 55.4449 9.4261 C 57.0399 9.3331 58.6289 9.1281 60.2159 8.9361 C 60.8479 8.8601 61.4639 8.6381 62.0969 8.5781 C 63.3259 8.4611 64.4769 8.1191 65.5969 7.6111 C 66.4659 7.2181 67.3889 6.9361 68.2349 6.5031 C 68.7399 6.2441 69.4389 6.2151 69.7379 5.4821 C 69.3839 5.2831 69.0679 5.0661 68.7219 4.9181 C 67.6439 4.4561 66.5179 4.0921 65.4789 3.5581 C 64.2789 2.9421 63.0339 2.7421 61.7099 2.6741 C 60.5029 2.6121 59.3069 2.3591 58.1079 2.1801 C 57.9889 2.1621 57.8559 2.0941 57.7719 2.0071 C 57.4209 1.6441 57.0219 1.7411 56.6089 1.8461 C 55.4989 2.1301 54.3889 2.4131 53.2759 2.6831 C 52.3189 2.9141 51.3049 3.0011 50.4089 3.3751 C 48.6769 4.0961 47.0079 4.9701 45.3179 5.7941 C 45.0969 5.9021 44.9129 6.0851 44.6229 6.2971 Z M 46.0339 91.3711 C 45.5439 91.2961 45.1349 91.1571 44.7399 91.1891 C 44.2219 91.2301 43.7969 91.0801 43.3739 90.8351 C 43.2389 90.7571 43.1039 90.6541 42.9569 90.6261 C 41.1659 90.2891 39.4359 89.7511 37.7349 89.1041 C 37.3499 88.9591 36.9229 88.9291 36.5189 88.8311 C 36.1089 88.7321 35.7019 88.6151 35.3779 88.5281 C 35.2779 92.3051 35.9109 95.9001 36.4959 99.5571 C 38.3469 100.0921 40.1869 100.6181 42.0239 101.1571 C 42.6039 101.3261 43.1659 101.5561 43.7499 101.7091 C 44.6149 101.9371 45.4399 102.4341 46.3429 102.2101 C 46.2389 98.5821 46.1369 95.0101 46.0339 91.3711 Z M 57.9169 103.6801 C 57.9169 102.5361 58.0359 101.4631 57.8919 100.4251 C 57.5699 98.0951 57.6459 95.7541 57.5479 93.4191 C 57.5179 92.7101 57.4499 92.6061 56.7209 92.5691 C 56.0249 92.5331 55.3269 92.5191 54.6329 92.4731 C 54.0909 92.4381 53.5519 92.3611 53.0099 92.3191 C 51.7119 92.2171 50.3949 92.3741 49.1169 91.9941 C 48.7639 91.8891 48.3889 91.8581 48.0229 91.7921 C 47.4979 93.1421 47.8569 94.5001 47.7339 95.8231 C 47.6599 96.6111 47.6639 97.4151 47.7239 98.2051 C 47.8109 99.3491 47.9899 100.4861 48.1089 101.6281 C 48.2179 102.6681 48.2759 102.7591 49.2689 102.9401 C 52.1289 103.4601 55.0079 103.7651 57.9169 103.6801 Z M 86.4129 100.1371 C 86.4129 99.2861 86.4369 98.4251 86.4079 97.5651 C 86.3549 96.0251 86.2139 94.4861 86.2169 92.9471 C 86.2199 91.7911 85.8839 90.6851 85.8629 89.5381 C 85.8549 89.1541 85.5369 88.9861 85.1659 89.0961 C 84.6469 89.2501 84.1349 89.4321 83.6289 89.6251 C 82.5639 90.0331 81.5059 90.4631 80.4399 90.8671 C 80.2379 90.9441 80.0089 90.9721 79.7909 90.9781 C 78.8489 91.0021 77.9579 91.2031 77.0959 91.5961 C 76.3179 91.9511 76.1839 92.1731 76.3369 92.9701 C 76.4709 93.6601 76.5659 94.3591 76.6499 95.0571 C 76.7879 96.1951 76.8809 97.3381 77.0339 98.4741 C 77.1699 99.4811 77.3699 100.4781 77.5229 101.4831 C 77.5789 101.8481 77.5799 102.2211 77.6169 102.7361 C 78.1369 102.6401 78.5899 102.5791 79.0319 102.4681 C 79.5239 102.3451 80.0029 102.1681 80.4929 102.0331 C 80.8309 101.9401 81.1879 101.9081 81.5189 101.7971 C 83.1219 101.2641 84.7189 100.7141 86.4129 100.1371 Z M 96.0439 83.4251 C 95.7059 83.6431 95.4669 83.7451 95.2979 83.9161 C 94.7059 84.5131 94.0449 84.9861 93.2689 85.3241 C 92.5399 85.6411 91.8369 86.0201 91.1329 86.3931 C 90.3469 86.8091 89.5759 87.2551 88.7909 87.6741 C 88.2699 87.9521 87.7359 88.2071 87.4049 88.3741 C 87.4049 89.1951 87.3509 89.7931 87.4169 90.3761 C 87.5659 91.7081 87.7919 93.0311 87.9519 94.3621 C 88.0889 95.5011 88.2459 96.6451 88.2639 97.7881 C 88.2739 98.4111 88.4219 98.8831 88.8719 99.3671 C 90.0229 98.8401 91.1619 98.3421 92.2789 97.7981 C 93.1119 97.3931 93.9309 96.9541 94.7249 96.4781 C 95.3229 96.1211 96.0039 95.7601 96.1529 95.0081 C 96.3309 94.1081 96.5109 93.1771 96.4589 92.2721 C 96.3949 91.1641 96.2209 90.0821 96.3219 88.9491 C 96.4409 87.5821 96.3299 86.1931 96.2839 84.8141 C 96.2669 84.3871 96.1389 83.9621 96.0439 83.4251 Z M 67.5599 104.0971 C 70.2779 103.9501 72.8609 103.6301 75.5469 103.0651 C 75.4929 101.5281 75.4719 99.9671 75.3729 98.4121 C 75.2739 96.8501 75.0609 95.2961 74.9629 93.7351 C 74.8589 92.0681 74.8689 92.0501 73.6169 92.5851 C 72.8519 92.5051 72.3359 92.3811 71.8319 92.4141 C 70.9089 92.4751 69.9949 92.6521 69.0719 92.7371 C 68.5769 92.7821 68.4099 93.0331 68.3989 93.4861 C 68.3829 94.1261 68.3859 94.7711 68.3139 95.4061 C 68.0509 97.7541 67.7459 100.0971 67.4929 102.4461 C 67.4369 102.9621 67.5309 103.4941 67.5599 104.0971 Z M 27.2049 84.5611 C 27.2529 85.1021 27.2779 85.4501 27.3149 85.7971 C 27.3749 86.3661 27.4919 86.9341 27.4989 87.5031 C 27.5189 89.1311 27.2869 90.7791 27.9939 92.3381 C 28.0429 92.4481 28.0179 92.5911 28.0299 92.7191 C 28.1319 93.8311 28.2269 94.9431 28.3429 96.0531 C 28.3649 96.2581 28.4749 96.4531 28.5509 96.6731 C 28.8199 96.6021 29.0759 96.4421 29.2269 96.5111 C 29.7389 96.7481 30.2159 97.0611 30.7009 97.3551 C 30.9119 97.4831 31.0899 97.6861 31.3139 97.7671 C 32.1219 98.0551 32.9409 98.3081 33.7599 98.5671 C 33.9529 98.6281 34.1569 98.6561 34.3079 98.6891 C 34.2889 97.6381 34.2699 96.6561 34.2509 95.6751 C 34.2319 94.6311 34.3119 93.5731 34.1699 92.5451 C 33.9979 91.3021 33.8929 90.0661 33.9029 88.8121 C 33.9089 87.9651 33.7669 87.7881 32.9989 87.5641 C 30.9339 86.9611 29.0339 86.0381 27.2049 84.5611 Z " id="Shape" fill="#32419a" stroke-width="1" stroke="none"/></g><g id="Group"><g id="Group-3"><path d="M 13.6769 165.0121 L 15.6209 163.1111 L 17.9169 162.5111 L 20.9119 164.1121 L 22.2099 166.8121 L 22.2099 171.5641 L 20.0139 173.7121 L 21.3119 176.3111 L 20.6129 179.0111 L 18.0169 180.9121 L 14.1739 180.4111 L 11.6269 178.6111 L 10.3289 175.2121 L 7.1339 174.8111 L 5.2149 172.9111 C 5.2149 172.9111 5.5729 171.2381 5.2369 169.6111 C 4.9009 167.9851 8.4319 165.7771 8.4319 165.7771 L 12.5249 165.3121 Z " id="Shape" fill="#ffffff" stroke-width="1" stroke="none"/><path d="M 21.2329 173.7941 C 22.4399 175.2161 22.2749 176.7341 21.7909 178.2421 C 21.4289 179.3691 20.6439 180.2411 19.7659 181.0171 C 19.2889 181.4371 18.7299 181.6371 18.0869 181.6281 C 17.1539 181.6151 16.2219 181.6101 15.2909 181.6281 C 12.7319 181.6791 11.2539 180.0401 10.5639 177.8501 C 10.4019 177.3351 10.3259 176.7921 10.2129 176.2691 C 9.3759 176.1901 8.5819 176.1221 7.7899 176.0381 C 6.4599 175.8991 5.4399 175.2031 4.6449 174.1771 C 3.8279 173.1231 3.8279 171.8731 4.0919 170.6661 C 4.6219 168.2451 5.9599 166.3181 7.9609 164.8571 C 8.4739 164.4821 9.0639 164.3531 9.6889 164.3531 C 10.7129 164.3531 11.7379 164.3531 12.8439 164.3531 C 13.4469 163.3231 14.5059 162.5611 15.6009 161.9171 C 16.6409 161.3071 17.8559 161.4581 18.9809 161.7771 C 21.2679 162.4261 23.4209 164.9411 23.4209 167.6171 C 23.4209 168.7691 23.2839 169.9241 23.1609 171.0731 C 23.0629 171.9881 22.4729 172.6461 21.8609 173.2711 C 21.6819 173.4531 21.4689 173.5991 21.2329 173.7941 Z M 14.2859 164.9351 C 14.4439 165.2191 14.5109 165.3601 14.5959 165.4891 C 14.7949 165.7861 14.8359 166.0871 14.6069 166.3801 C 14.3599 166.6951 14.0419 166.7811 13.6639 166.6291 C 13.5159 166.5681 13.3459 166.5441 13.2149 166.4591 C 12.5939 166.0601 11.8869 166.0511 11.1909 165.9281 C 9.6689 165.6611 8.5089 166.1731 7.5339 167.3201 C 6.5549 168.4711 5.8449 169.7501 5.5749 171.2371 C 5.2739 172.8921 6.2869 174.2461 7.9459 174.4811 C 8.2309 174.5221 8.5189 174.5521 8.8059 174.5851 C 9.8679 174.7051 9.9729 174.6181 10.2179 173.5841 C 10.2819 173.3131 10.4139 173.0351 10.5879 172.8211 C 10.8329 172.5181 11.2299 172.4221 11.5459 172.6171 C 11.7829 172.7621 11.9409 173.0801 12.0589 173.3541 C 12.1279 173.5111 12.0969 173.7521 12.0259 173.9191 C 11.5309 175.0991 11.7479 176.2841 12.0949 177.4181 C 12.6599 179.2681 13.6509 180.1021 15.4989 180.0871 C 16.2699 180.0811 17.0409 180.1081 17.8099 180.0741 C 18.1169 180.0611 18.4849 180.0041 18.7089 179.8221 C 19.5179 179.1671 20.2229 178.3781 20.4209 177.3311 C 20.5429 176.6911 20.5489 175.9591 20.3579 175.3471 C 20.1569 174.7001 19.4399 174.6361 18.8109 174.6191 C 18.7509 174.6181 18.6659 174.5891 18.6389 174.5441 C 18.4839 174.2861 18.2329 174.0211 18.2319 173.7571 C 18.2309 173.5441 18.5089 173.2931 18.7189 173.1311 C 18.8519 173.0281 19.1009 173.0911 19.2739 173.0201 C 20.3759 172.5711 21.3979 171.9561 21.6169 170.6971 C 21.8089 169.5981 21.8759 168.4531 21.8129 167.3391 C 21.7099 165.5201 20.2019 163.7531 18.4559 163.2701 C 17.7429 163.0741 16.9499 162.9551 16.2969 163.3421 C 15.5899 163.7621 14.9939 164.3631 14.2859 164.9351 Z " id="Shape" fill="#32419a" stroke-width="1" stroke="none"/></g><g id="Group-2"><path d="M 125.1479 157.2611 L 125.1479 161.9111 L 123.6499 164.3111 L 121.3539 164.8111 L 118.6199 163.9111 L 117.3599 162.5111 L 115.6629 162.5111 L 113.6669 161.4991 L 112.3679 159.6121 L 111.9689 158.0111 L 111.9689 155.9111 L 113.2669 154.9111 L 115.4639 154.3111 L 117.2609 154.9111 L 116.7609 152.0121 L 117.5599 149.7121 L 119.9939 149.7121 L 122.1529 150.6121 L 122.7519 152.4121 L 122.7519 154.9111 C 124.9479 155.3111 125.1479 157.2611 125.1479 157.2611 Z " id="Shape" fill="#ffffff" stroke-width="1" stroke="none"/><path d="M 116.0069 153.5421 C 116.0069 152.8551 115.9949 152.2801 116.0099 151.7071 C 116.0459 150.3931 116.7439 149.1041 118.1459 148.7081 C 119.2429 148.3981 120.4629 148.3881 121.4129 149.0321 C 122.7939 149.9691 123.8919 151.2001 123.7389 153.0851 C 123.7189 153.3391 123.7359 153.5951 123.7359 153.9281 C 124.5659 154.3051 125.2599 154.9231 125.7599 155.7191 C 125.9919 156.0881 126.2239 156.5381 126.2279 156.9541 C 126.2459 158.6881 126.1869 160.4231 126.1369 162.1571 C 126.0829 163.9721 124.1539 165.6191 122.4159 165.7541 C 120.5409 165.8981 118.8559 165.3511 117.4749 164.0381 C 117.1699 163.7491 116.8819 163.6171 116.4679 163.6031 C 114.8229 163.5471 113.6039 162.7691 112.5279 161.5141 C 111.3779 160.1721 110.8949 158.7271 111.0279 156.9971 C 111.1779 155.0471 112.4689 153.7321 114.4249 153.6211 C 114.9019 153.5941 115.3779 153.5731 116.0069 153.5421 Z M 116.5279 161.9801 C 116.6239 161.7331 116.6919 161.5541 116.7639 161.3771 C 116.9099 161.0121 117.1739 160.7791 117.5719 160.8301 C 118.0149 160.8851 118.2149 161.2151 118.2789 161.6311 C 118.2979 161.7571 118.3069 161.8891 118.2959 162.0151 C 118.2429 162.6011 118.5409 162.9851 118.9979 163.2901 C 119.8449 163.8571 120.7829 164.1591 121.7899 164.2301 C 122.9419 164.3111 124.5659 163.2611 124.5989 161.8551 C 124.6289 160.5401 124.6539 159.2231 124.7409 157.9111 C 124.8149 156.7991 124.2589 156.1231 123.3839 155.5671 C 123.2219 155.6971 123.0989 155.7961 122.9759 155.8951 C 122.6729 156.1351 122.3419 156.2171 121.9959 156.0151 C 121.6479 155.8111 121.5429 155.4611 121.6109 155.0971 C 121.6799 154.7231 121.7899 154.3471 121.9469 154.0021 C 122.8089 152.1091 121.0429 149.9321 119.1869 150.1181 C 118.4119 150.1961 117.6719 150.6551 117.6289 151.4171 C 117.5829 152.2721 117.2629 153.1911 117.9409 153.9961 C 118.1889 154.2901 118.0119 155.0351 117.7239 155.3351 C 117.4389 155.6301 117.0569 155.6921 116.7579 155.4771 C 115.9589 154.9021 115.0919 155.1761 114.2509 155.2101 C 113.4959 155.2411 112.9969 155.7021 112.7689 156.3971 C 112.3789 157.5871 112.4609 158.7461 113.1989 159.7961 C 113.4929 160.2151 113.8439 160.5941 114.1789 160.9831 C 114.7809 161.6821 115.5419 162.0161 116.5279 161.9801 Z " id="Shape" fill="#32419a" stroke-width="1" stroke="none"/></g></g></g></g></svg>